<?xml version="1.0" encoding="utf-8"?>
<!-- Generator: Adobe Illustrator 16.0.0, SVG Export Plug-In . SVG Version: 6.00 Build 0)  -->
<!DOCTYPE svg PUBLIC "-//W3C//DTD SVG 1.1//EN" "http://www.w3.org/Graphics/SVG/1.1/DTD/svg11.dtd">
<svg version="1.1" id="Layer_1" xmlns="http://www.w3.org/2000/svg" xmlns:xlink="http://www.w3.org/1999/xlink" x="0px" y="0px"
	 width="200px" height="185px" viewBox="0 0 200 185" enable-background="new 0 0 200 185" xml:space="preserve">
<rect x="48.333" y="-101.349" fill="none" stroke="#FFFFFF" stroke-width="8" stroke-miterlimit="10" width="151.667" height="32"/>
<polygon fill="none" stroke="#FFFFFF" stroke-width="8" stroke-miterlimit="10" points="48.333,-69.349 6.25,-85.349
	48.333,-101.349 "/>
<polygon fill="#FFFFFF" stroke="#FFFFFF" stroke-width="7" stroke-miterlimit="10" points="23.087,-91.75 23.087,-78.947
	6.25,-85.349 "/>
<path fill="#FFFFFF" d="M-183-81.349h-159.667v-40H-183V-81.349z M-334.667-89.349H-191v-24h-143.667V-89.349z"/>
<path fill="#FFFFFF" d="M-334.667-79.548l-57.339-21.8l57.339-21.8V-79.548z M-369.494-101.349l26.828,10.2v-20.399
	L-369.494-101.349z"/>
<polygon fill="#FFFFFF" points="-363.913,-107.75 -363.913,-94.947 -380.75,-101.349 "/>
<path fill="#FFFFFF" d="M-360.413-89.872l-30.186-11.477l30.186-11.477V-89.872z M-370.901-101.349l3.488,1.326v-2.652
	L-370.901-101.349z"/>
<g>
	<rect x="-277.328" y="38.651" fill="none" width="143.667" height="24"/>
	<polygon fill="none" points="-303.074,54.104 -285.328,60.851 -285.328,40.452 -303.074,47.199 	"/>
	<path fill="#FFFFFF" d="M-277.328,30.651h-4.735l-3.265,1.241l-49.339,18.759l49.339,18.759l3.265,1.241h4.735h151.667v-40
		H-277.328z M-285.328,60.851l-17.747-6.747v-6.905l17.747-6.747V60.851z M-133.661,62.651h-143.667v-24h143.667V62.651z"/>
</g>
<g>

		<rect x="38.539" y="81.662" transform="matrix(-0.7071 0.7071 -0.7071 -0.7071 254.6473 81.8462)" fill="none" width="143.667" height="24"/>
	<polygon fill="none" points="43.814,165.104 61.134,157.326 46.709,142.9 38.932,160.221 	"/>
	<path fill="#FFFFFF" d="M45.437,130.314l-3.348,3.348l-1.431,3.186L19.034,185l48.152-21.623l3.187-1.432l3.348-3.348
		L180.965,51.354l-28.283-28.284L45.437,130.314z M61.134,157.326l-17.32,7.777l-4.883-4.883l7.778-17.32L61.134,157.326z
		 M169.652,51.354L68.064,152.941l-16.971-16.971L152.682,34.383L169.652,51.354z"/>
</g>
</svg>
