<?xml version="1.0" encoding="utf-8"?>
<!-- Generator: Adobe Illustrator 16.0.0, SVG Export Plug-In . SVG Version: 6.00 Build 0)  -->
<!DOCTYPE svg PUBLIC "-//W3C//DTD SVG 1.1//EN" "http://www.w3.org/Graphics/SVG/1.1/DTD/svg11.dtd">
<svg version="1.1" id="Layer_1" xmlns="http://www.w3.org/2000/svg" xmlns:xlink="http://www.w3.org/1999/xlink" x="0px" y="0px"
	 width="200px" height="185px" viewBox="0 0 200 185" enable-background="new 0 0 200 185" xml:space="preserve">
<path fill="#FFFFFF" d="M186.73,98.271c0-47.822-38.907-86.73-86.729-86.73c-22.673,0-43.337,8.75-58.806,23.043L18.28,11.667
	l-4.883,4.883l22.915,22.916C22.019,54.935,13.271,75.599,13.271,98.271c0,47.823,38.907,86.729,86.73,86.729
	c22.672,0,43.336-8.749,58.805-23.042l22.915,22.915l4.883-4.883l-22.915-22.915C177.981,141.606,186.73,120.942,186.73,98.271z
	 M41.592,44.745l111.935,111.934c-14.113,12.944-32.91,20.86-53.525,20.86c-43.709,0-79.27-35.561-79.27-79.269
	C20.731,77.655,28.646,58.858,41.592,44.745z M179.27,98.271c0,20.614-7.916,39.411-20.86,53.525L46.475,39.862
	c14.113-12.945,32.911-20.861,53.526-20.861C143.71,19.001,179.27,54.562,179.27,98.271z"/>
</svg>
